<svg width="368" height="86" viewBox="0 0 368 86" fill="none" xmlns="http://www.w3.org/2000/svg">
<path d="M221.842 69.0268C221.476 68.3604 221.958 67.5455 222.718 67.5455H225.126C225.504 67.5455 225.849 67.7578 226.019 68.0945L229.397 74.781C229.418 74.823 229.461 74.8494 229.508 74.8494C229.555 74.8494 229.599 74.823 229.62 74.781L232.998 68.0945C233.168 67.7578 233.513 67.5455 233.891 67.5455H236.299C237.059 67.5455 237.541 68.3604 237.175 69.0268L231.728 78.9456C231.647 79.0931 231.605 79.2587 231.605 79.427V84C231.605 84.5523 231.157 85 230.605 85H228.412C227.86 85 227.412 84.5523 227.412 84V79.427C227.412 79.2587 227.369 79.0931 227.288 78.9456L221.842 69.0268Z" fill="#95DB59"/>
<path d="M217.362 72.7784C216.844 72.7784 216.445 72.3608 216.196 71.9075C216.071 71.6808 215.903 71.4853 215.69 71.321C215.247 70.9688 214.613 70.7926 213.789 70.7926C213.244 70.7926 212.789 70.8636 212.426 71.0057C212.062 71.1477 211.789 71.3438 211.608 71.5938C211.426 71.8381 211.332 72.1193 211.326 72.4375C211.315 72.6989 211.366 72.929 211.48 73.1278C211.599 73.3267 211.77 73.5028 211.991 73.6563C212.218 73.804 212.491 73.9347 212.809 74.0483C213.127 74.1619 213.485 74.2614 213.883 74.3466L215.383 74.6875C216.247 74.875 217.008 75.125 217.667 75.4375C218.332 75.75 218.889 76.1222 219.338 76.554C219.792 76.9858 220.136 77.483 220.369 78.0455C220.602 78.608 220.721 79.2386 220.727 79.9375C220.721 81.0398 220.443 81.9858 219.892 82.7756C219.341 83.5653 218.548 84.1705 217.514 84.5909C216.485 85.0114 215.244 85.2216 213.789 85.2216C212.329 85.2216 211.056 85.0028 209.971 84.5653C208.886 84.1278 208.042 83.4631 207.44 82.571C206.993 81.9094 206.708 81.1181 206.583 80.197C206.508 79.6449 206.966 79.1875 207.524 79.1875H209.61C210.138 79.1875 210.549 79.6129 210.741 80.1056C210.81 80.2829 210.897 80.4456 211.002 80.5938C211.27 80.9688 211.636 81.2528 212.102 81.446C212.573 81.6392 213.119 81.7358 213.738 81.7358C214.306 81.7358 214.789 81.6591 215.187 81.5057C215.591 81.3523 215.9 81.1392 216.116 80.8665C216.332 80.5938 216.443 80.2813 216.448 79.929C216.443 79.5994 216.341 79.3182 216.142 79.0852C215.943 78.8466 215.636 78.642 215.221 78.4716C214.812 78.2955 214.289 78.1335 213.653 77.9858L211.829 77.5597C210.318 77.2131 209.127 76.6534 208.258 75.8807C207.389 75.1023 206.957 74.0511 206.963 72.7273C206.957 71.6477 207.247 70.7017 207.832 69.8892C208.417 69.0767 209.227 68.4432 210.261 67.9886C211.295 67.5341 212.474 67.3068 213.798 67.3068C215.15 67.3068 216.323 67.5369 217.318 67.9972C218.318 68.4517 219.093 69.0909 219.645 69.9148C220.019 70.4741 220.268 71.0937 220.394 71.7735C220.495 72.3207 220.034 72.7784 219.478 72.7784H217.362Z" fill="#95DB59"/>
<path d="M193.992 84.299C193.862 84.7161 193.475 85 193.038 85H190.632C189.947 85 189.465 84.3285 189.684 83.6803L194.898 68.2258C195.036 67.8192 195.417 67.5455 195.846 67.5455H200.026C200.456 67.5455 200.837 67.8192 200.974 68.2258L206.188 83.6803C206.407 84.3285 205.925 85 205.241 85H202.834C202.397 85 202.011 84.7164 201.88 84.2996L198.021 72.0082C198.008 71.9695 197.973 71.9432 197.932 71.9432C197.891 71.9432 197.856 71.9696 197.843 72.0083L193.992 84.299ZM193.168 79.1307C193.168 78.5784 193.615 78.1307 194.168 78.1307H201.645C202.197 78.1307 202.645 78.5784 202.645 79.1307V80.3352C202.645 80.8875 202.197 81.3352 201.645 81.3352H194.168C193.615 81.3352 193.168 80.8875 193.168 80.3352V79.1307Z" fill="#95DB59"/>
<path d="M177.145 85C176.592 85 176.145 84.5523 176.145 84V68.5455C176.145 67.9932 176.592 67.5455 177.145 67.5455H187.315C187.868 67.5455 188.315 67.9932 188.315 68.5455V69.9716C188.315 70.5239 187.868 70.9716 187.315 70.9716H181.364C180.811 70.9716 180.364 71.4193 180.364 71.9716V73.5512C180.364 74.1034 180.811 74.5512 181.364 74.5512H186.693C187.245 74.5512 187.693 74.9989 187.693 75.5512V76.9858C187.693 77.5381 187.245 77.9858 186.693 77.9858H181.364C180.811 77.9858 180.364 78.4335 180.364 78.9858V80.5739C180.364 81.1262 180.811 81.5739 181.364 81.5739H187.315C187.868 81.5739 188.315 82.0216 188.315 82.5739V84C188.315 84.5523 187.868 85 187.315 85H177.145Z" fill="#95DB59"/>
<path d="M159.096 85C158.544 85 158.096 84.5523 158.096 84V68.5455C158.096 67.9932 158.544 67.5455 159.096 67.5455H169.266C169.819 67.5455 170.266 67.9932 170.266 68.5455V69.9716C170.266 70.5239 169.819 70.9716 169.266 70.9716H163.315C162.762 70.9716 162.315 71.4193 162.315 71.9716V73.5512C162.315 74.1034 162.762 74.5512 163.315 74.5512H168.644C169.197 74.5512 169.644 74.9989 169.644 75.5512V76.9858C169.644 77.5381 169.197 77.9858 168.644 77.9858H163.315C162.762 77.9858 162.315 78.4335 162.315 78.9858V80.5739C162.315 81.1262 162.762 81.5739 163.315 81.5739H169.266C169.819 81.5739 170.266 82.0216 170.266 82.5739V84C170.266 84.5523 169.819 85 169.266 85H159.096Z" fill="#95DB59"/>
<path d="M147.977 85H142.525C141.973 85 141.525 84.5523 141.525 84V68.5455C141.525 67.9932 141.973 67.5455 142.525 67.5455H147.968C149.746 67.5455 151.278 67.8949 152.562 68.5938C153.852 69.2869 154.846 70.2869 155.545 71.5938C156.244 72.8949 156.593 74.4517 156.593 76.2642C156.593 78.0824 156.244 79.6449 155.545 80.9517C154.852 82.2585 153.86 83.2614 152.57 83.9602C151.281 84.6534 149.749 85 147.977 85ZM145.744 80.4034C145.744 80.9557 146.191 81.4034 146.744 81.4034H147.815C148.792 81.4034 149.619 81.2387 150.295 80.9091C150.977 80.5739 151.491 80.0313 151.837 79.2813C152.19 78.5256 152.366 77.5199 152.366 76.2642C152.366 75.0085 152.19 74.0085 151.837 73.2642C151.485 72.5142 150.965 71.9744 150.278 71.6449C149.596 71.3097 148.755 71.1421 147.755 71.1421H146.744C146.191 71.1421 145.744 71.5898 145.744 72.1421V80.4034Z" fill="#95DB59"/>
<path d="M127.964 84.299C127.834 84.7161 127.447 85 127.01 85H124.603C123.919 85 123.437 84.3285 123.656 83.6803L128.87 68.2258C129.008 67.8192 129.389 67.5455 129.818 67.5455H133.998C134.427 67.5455 134.809 67.8192 134.946 68.2258L140.16 83.6803C140.379 84.3285 139.897 85 139.213 85H136.806C136.369 85 135.982 84.7164 135.852 84.2996L131.992 72.0082C131.98 71.9695 131.944 71.9432 131.904 71.9432C131.863 71.9432 131.827 71.9696 131.815 72.0083L127.964 84.299ZM127.14 79.1307C127.14 78.5784 127.587 78.1307 128.14 78.1307H135.617C136.169 78.1307 136.617 78.5784 136.617 79.1307V80.3352C136.617 80.8875 136.169 81.3352 135.617 81.3352H128.14C127.587 81.3352 127.14 80.8875 127.14 80.3352V79.1307Z" fill="#95DB59"/>
<path d="M102.781 68.5455C102.781 67.9932 103.228 67.5455 103.781 67.5455H107.334C107.74 67.5455 108.106 67.7906 108.26 68.166L112.398 78.2577C112.422 78.3149 112.477 78.3523 112.539 78.3523C112.601 78.3523 112.657 78.3149 112.68 78.2577L116.819 68.166C116.973 67.7906 117.338 67.5455 117.744 67.5455H121.298C121.85 67.5455 122.298 67.9932 122.298 68.5455V84C122.298 84.5523 121.85 85 121.298 85H119.19C118.638 85 118.19 84.5523 118.19 84V74.3647C118.19 74.317 118.151 74.2784 118.104 74.2784C118.068 74.2784 118.036 74.3001 118.023 74.333L114.102 84.2567C113.951 84.6384 113.582 84.8892 113.172 84.8892H111.908C111.497 84.8892 111.128 84.6376 110.978 84.255L107.055 74.2734C107.042 74.2404 107.01 74.2188 106.975 74.2188C106.927 74.2188 106.889 74.2573 106.889 74.3049V84C106.889 84.5523 106.441 85 105.889 85H103.781C103.228 85 102.781 84.5523 102.781 84V68.5455Z" fill="#95DB59"/>
<path d="M81.6291 69.0268C81.2631 68.3604 81.7453 67.5455 82.5056 67.5455H84.9136C85.2909 67.5455 85.636 67.7578 85.8061 68.0945L89.1845 74.781C89.2057 74.823 89.2487 74.8494 89.2958 74.8494C89.3428 74.8494 89.3859 74.823 89.4071 74.781L92.7854 68.0945C92.9556 67.7578 93.3007 67.5455 93.678 67.5455H96.0859C96.8462 67.5455 97.3284 68.3604 96.9625 69.0268L91.5158 78.9456C91.4348 79.0931 91.3924 79.2587 91.3924 79.427V84C91.3924 84.5523 90.9447 85 90.3924 85H88.1992C87.6469 85 87.1992 84.5523 87.1992 84V79.427C87.1992 79.2587 87.1567 79.0931 87.0757 78.9456L81.6291 69.0268Z" fill="#95DB59"/>
<path d="M78.9923 67.5455C79.5446 67.5455 79.9923 67.9932 79.9923 68.5455V84C79.9923 84.5523 79.5446 85 78.9923 85H76.9379C76.6091 85 76.3013 84.8384 76.1147 84.5677L69.4884 74.9576C69.4748 74.9379 69.4525 74.9262 69.4286 74.9262C69.3885 74.9262 69.356 74.9587 69.356 74.9988V84C69.356 84.5523 68.9082 85 68.356 85H66.1372C65.5849 85 65.1372 84.5523 65.1372 84V68.5455C65.1372 67.9932 65.5849 67.5455 66.1372 67.5455H68.2399C68.5703 67.5455 68.8793 67.7086 69.0657 67.9814L75.609 77.561C75.6266 77.5868 75.6559 77.6023 75.6873 77.6023C75.7396 77.6023 75.7821 77.5598 75.7821 77.5075V68.5455C75.7821 67.9932 76.2298 67.5455 76.7821 67.5455H78.9923Z" fill="#95DB59"/>
<path d="M51.577 84.299C51.4463 84.7161 51.0598 85 50.6227 85H48.216C47.5319 85 47.0498 84.3285 47.2685 83.6803L52.4829 68.2258C52.6201 67.8192 53.0013 67.5455 53.4304 67.5455H57.6109C58.04 67.5455 58.4213 67.8192 58.5585 68.2258L63.7729 83.6803C63.9916 84.3285 63.5094 85 62.8253 85H60.4182C59.9813 85 59.595 84.7164 59.4641 84.2996L55.605 72.0082C55.5929 71.9695 55.557 71.9432 55.5164 71.9432C55.4759 71.9432 55.44 71.9696 55.4279 72.0083L51.577 84.299ZM50.7522 79.1307C50.7522 78.5784 51.1999 78.1307 51.7522 78.1307H59.2295C59.7818 78.1307 60.2295 78.5784 60.2295 79.1307V80.3352C60.2295 80.8875 59.7818 81.3352 59.2295 81.3352H51.7522C51.1999 81.3352 50.7522 80.8875 50.7522 80.3352V79.1307Z" fill="#95DB59"/>
<path d="M34.9082 70.9716C34.3559 70.9716 33.9082 70.5239 33.9082 69.9716V68.5455C33.9082 67.9932 34.3559 67.5455 34.9082 67.5455H47.661C48.2133 67.5455 48.661 67.9932 48.661 68.5455V69.9716C48.661 70.5239 48.2133 70.9716 47.661 70.9716H44.3684C43.8161 70.9716 43.3684 71.4193 43.3684 71.9716V84C43.3684 84.5523 42.9207 85 42.3684 85H40.2093C39.6571 85 39.2093 84.5523 39.2093 84V71.9716C39.2093 71.4193 38.7616 70.9716 38.2093 70.9716H34.9082Z" fill="#95DB59"/>
<path d="M33.773 76.2727C33.773 78.1932 33.4037 79.821 32.6651 81.1563C31.9264 82.4915 30.9264 83.5057 29.6651 84.1989C28.4094 84.8921 27.0003 85.2386 25.4378 85.2386C23.8696 85.2386 22.4577 84.8892 21.202 84.1903C19.9463 83.4915 18.9492 82.4773 18.2105 81.1477C17.4776 79.8125 17.1111 78.1875 17.1111 76.2727C17.1111 74.3523 17.4776 72.7244 18.2105 71.3892C18.9492 70.054 19.9463 69.0398 21.202 68.3466C22.4577 67.6534 23.8696 67.3068 25.4378 67.3068C27.0003 67.3068 28.4094 67.6534 29.6651 68.3466C30.9264 69.0398 31.9264 70.054 32.6651 71.3892C33.4037 72.7244 33.773 74.3523 33.773 76.2727ZM29.4605 76.2727C29.4605 75.1364 29.2986 74.1761 28.9747 73.3921C28.6565 72.608 28.1963 72.0142 27.594 71.6108C26.9974 71.2074 26.2787 71.0057 25.4378 71.0057C24.6026 71.0057 23.8838 71.2074 23.2815 71.6108C22.6793 72.0142 22.2162 72.608 21.8923 73.3921C21.5742 74.1761 21.4151 75.1364 21.4151 76.2727C21.4151 77.4091 21.5742 78.3693 21.8923 79.1534C22.2162 79.9375 22.6793 80.5313 23.2815 80.9347C23.8838 81.3381 24.6026 81.5398 25.4378 81.5398C26.2787 81.5398 26.9974 81.3381 27.594 80.9347C28.1963 80.5313 28.6565 79.9375 28.9747 79.1534C29.2986 78.3693 29.4605 77.4091 29.4605 76.2727Z" fill="#95DB59"/>
<path d="M3.32105 85C2.76876 85 2.32104 84.5523 2.32104 84V68.5455C2.32104 67.9932 2.76876 67.5455 3.32104 67.5455H9.59945C10.9063 67.5455 12 67.7301 12.8807 68.0994C13.7671 68.4688 14.4318 68.9858 14.875 69.6506C15.3239 70.3154 15.5483 71.0852 15.5483 71.9602C15.5483 72.625 15.4091 73.2188 15.1307 73.7415C14.8523 74.2585 14.4688 74.6875 13.9801 75.0284C13.511 75.3557 12.9712 75.5888 12.3606 75.7275C12.3161 75.7376 12.2841 75.777 12.2841 75.8227C12.2841 75.8742 12.3247 75.9166 12.3761 75.9202C13.0454 75.9658 13.6653 76.1544 14.2358 76.4858C14.8381 76.8324 15.321 77.3154 15.6847 77.9347C16.0483 78.5483 16.2301 79.2756 16.2301 80.1165C16.2301 81.054 15.9915 81.8921 15.5142 82.6307C15.037 83.3637 14.3466 83.9432 13.4432 84.3693C12.5398 84.7898 11.4432 85 10.1534 85H3.32105ZM6.53979 80.5994C6.53979 81.1517 6.98751 81.5994 7.53979 81.5994H9.14775C10.0625 81.5994 10.7358 81.4262 11.1676 81.0796C11.6051 80.733 11.8239 80.25 11.8239 79.6307C11.8239 79.1818 11.7188 78.7955 11.5085 78.4716C11.2983 78.1421 11 77.8892 10.6137 77.7131C10.2273 77.5313 9.76423 77.4404 9.22445 77.4404H7.53979C6.98751 77.4404 6.53979 77.8881 6.53979 78.4404V80.5994ZM6.53979 73.7216C6.53979 74.2739 6.98751 74.7216 7.53979 74.7216H8.87502C9.33525 74.7216 9.74434 74.6449 10.1023 74.4915C10.4602 74.3381 10.7387 74.1165 10.9375 73.8267C11.1421 73.5369 11.2443 73.1875 11.2443 72.7784C11.2443 72.1932 11.037 71.733 10.6222 71.3977C10.2074 71.0625 9.64775 70.8949 8.9432 70.8949H7.53979C6.98751 70.8949 6.53979 71.3426 6.53979 71.8949V73.7216Z" fill="#95DB59"/>
<path d="M334.593 79.4396C334.119 80.5417 333.035 81.256 331.836 81.256H320.143C317.969 81.256 316.517 79.016 317.405 77.0315L324.957 60.1405C325.283 59.4105 325.305 58.5806 325.016 57.8347L305.215 6.58523C304.456 4.61956 305.907 2.50403 308.014 2.50403H322.451C323.842 2.50403 325.051 3.46047 325.37 4.81441L332.753 36.0703C332.935 36.8413 333.623 37.386 334.416 37.386C335.144 37.386 335.792 36.9248 336.03 36.2371L347.023 4.5215C347.442 3.31385 348.58 2.50403 349.858 2.50403H363.072C365.226 2.50403 366.679 4.70777 365.828 6.68759L334.593 79.4396Z" fill="#FCF0D9"/>
<path d="M248.845 85C247.189 85 245.845 83.6569 245.845 82L245.845 5.50399C245.845 3.84713 247.189 2.50399 248.845 2.50399H260.579C262.024 2.50399 263.264 3.53442 263.529 4.95527L264.519 10.2795C264.673 11.1063 265.394 11.706 266.235 11.706C266.916 11.706 267.531 11.3064 267.841 10.6998C271.063 4.38043 275.929 0.898987 282.439 0.898987C295.279 0.898987 303.625 13.097 303.625 31.287C303.625 48.942 294.958 60.605 281.583 60.605C274.995 60.605 270.039 56.4765 267.716 50.4933C267.483 49.8933 266.917 49.477 266.274 49.477C265.451 49.477 264.784 50.1437 264.784 50.9661V82C264.784 83.6569 263.441 85 261.784 85H248.845ZM274.735 44.234C280.62 44.234 284.686 38.67 284.686 30.538C284.686 22.513 280.62 17.056 274.628 17.056C268.85 17.056 264.784 22.513 264.784 30.645C264.784 38.67 268.743 44.234 274.735 44.234Z" fill="#FCF0D9"/>
<path d="M210.841 0.898987C227.64 0.898987 239.838 11.92 239.838 30.645C239.838 49.37 227.64 60.605 210.841 60.605C193.935 60.605 181.737 49.37 181.737 30.645C181.737 11.92 193.935 0.898987 210.841 0.898987ZM210.841 17.163C203.779 17.163 200.141 23.904 200.141 30.645C200.141 37.386 203.779 44.341 210.841 44.341C217.796 44.341 221.434 37.386 221.434 30.645C221.434 23.904 217.796 17.163 210.841 17.163Z" fill="#FCF0D9"/>
<path d="M140.913 11.0654C141.06 11.9297 141.809 12.562 142.686 12.562C143.334 12.562 143.931 12.2105 144.262 11.6528C147.933 5.47387 152.676 0.898987 160.535 0.898987C170.7 0.898987 176.264 8.17499 176.264 19.303V56C176.264 57.6568 174.92 59 173.264 59H160.218C158.561 59 157.218 57.6568 157.218 56V25.402C157.218 20.373 154.436 16.842 149.621 16.842C144.806 16.842 141.168 21.122 141.168 25.723V56C141.168 57.6568 139.824 59 138.168 59H125.229C123.572 59 122.229 57.6568 122.229 56V5.50399C122.229 3.84714 123.572 2.50399 125.229 2.50399H136.923C138.386 2.50399 139.635 3.55872 139.88 5.00059L140.913 11.0654Z" fill="#FCF0D9"/>
<path d="M96.1414 23.583C96.1414 17.27 92.5034 14.702 87.4744 14.702C83.7962 14.702 80.763 16.4223 79.1964 19.4523C78.5612 20.6808 77.4062 21.657 76.0232 21.657H65.4042C63.5635 21.657 62.1426 20.0026 62.6587 18.2357C66.171 6.21002 77.3917 0.898987 88.9724 0.898987C102.561 0.898987 114.545 7.53299 114.545 23.369V56C114.545 57.6568 113.202 59 111.545 59H99.9203C98.4274 59 97.1616 57.9022 96.9505 56.4243L96.366 52.3331C96.2371 51.431 95.4646 50.761 94.5534 50.761C93.9412 50.761 93.3717 51.0702 93.0178 51.5697C88.8398 57.4681 83.7249 60.605 76.4534 60.605C67.1444 60.605 60.6174 54.934 60.6174 44.876C60.6174 29.04 76.7744 24.439 90.5774 24.546H95.1784C95.7103 24.546 96.1414 24.1148 96.1414 23.583ZM96.1414 36.53C96.1414 35.3481 95.1833 34.39 94.0015 34.39C92.844 34.39 91.6754 34.39 90.8984 34.39C85.2274 34.39 79.0214 36.316 79.0214 41.238C79.0214 44.769 81.9104 46.695 85.4414 46.695C91.5404 46.695 96.1414 41.987 96.1414 36.53Z" fill="#FCF0D9"/>
<path d="M58.0953 21.8926C58.5414 23.6653 57.1272 25.295 55.2992 25.295H43.8868C42.5574 25.295 41.4208 24.3974 40.7935 23.2252C38.8335 19.5622 34.8372 16.949 30.303 16.949C22.706 16.949 18.319 23.476 18.319 30.752C18.319 38.028 22.813 44.555 30.303 44.555C34.8841 44.555 39.1515 41.7306 41.0224 37.3581C41.5817 36.0509 42.7714 35.032 44.1933 35.032H55.433C57.2517 35.032 58.6628 36.645 58.2377 38.4133C54.9533 52.0756 43.7516 60.605 29.982 60.605C12.969 60.605 0.0219727 49.477 0.0219727 30.752C0.0219727 12.027 12.969 0.898987 29.982 0.898987C43.6322 0.898987 54.7222 8.48859 58.0953 21.8926Z" fill="#FCF0D9"/>
</svg>
