<svg width="22" height="25" viewBox="0 0 22 25" fill="none" xmlns="http://www.w3.org/2000/svg">
<path d="M6.44322 1.03224L6.03315 2.26243H1.50829C0.674016 2.26243 0 2.93645 0 3.77072C0 4.60499 0.674016 5.27901 1.50829 5.27901H19.6078C20.442 5.27901 21.116 4.60499 21.116 3.77072C21.116 2.93645 20.442 2.26243 19.6078 2.26243H15.0829L14.6728 1.03224C14.4654 0.414779 13.8904 0 13.2399 0H7.8761C7.22565 0 6.65061 0.414779 6.44322 1.03224ZM19.6078 7.54144H1.50829L2.50282 22.7704C2.57823 23.9629 3.56805 24.8868 4.76054 24.8868H16.3555C17.548 24.8868 18.5378 23.9629 18.6132 22.7704L19.6078 7.54144Z" fill="#19101A"/>
</svg>
