<svg width="20" height="21" viewBox="0 0 20 21" fill="none" xmlns="http://www.w3.org/2000/svg">
<path d="M19.9446 6.83454C20.0772 7.19144 19.9653 7.58937 19.6793 7.84372L17.8848 9.46005C17.9304 9.80055 17.9552 10.1492 17.9552 10.5021C17.9552 10.8549 17.9304 11.2036 17.8848 11.5441L19.6793 13.1604C19.9653 13.4147 20.0772 13.8127 19.9446 14.1696C19.7622 14.6577 19.5425 15.1254 19.2897 15.5767L19.0949 15.909C18.8214 16.3602 18.5147 16.7869 18.179 17.1889C17.9345 17.4843 17.5284 17.5827 17.1636 17.4679L14.8552 16.7417C14.2998 17.1643 13.6865 17.5171 13.0317 17.7837L12.5136 20.1262C12.4307 20.4995 12.1406 20.7949 11.7593 20.8564C11.1874 20.9508 10.5989 21 9.99793 21C9.39699 21 8.80848 20.9508 8.23654 20.8564C7.85526 20.7949 7.56515 20.4995 7.48226 20.1262L6.96421 17.7837C6.30939 17.5171 5.69601 17.1643 5.14066 16.7417L2.83635 17.472C2.47164 17.5868 2.06549 17.4843 1.82097 17.193C1.48527 16.791 1.17858 16.3643 0.90505 15.9131L0.710262 15.5808C0.457452 15.1295 0.237797 14.6618 0.0554424 14.1737C-0.0771793 13.8168 0.0347202 13.4188 0.320686 13.1645L2.11522 11.5482C2.06963 11.2036 2.04477 10.8549 2.04477 10.5021C2.04477 10.1492 2.06963 9.80055 2.11522 9.46005L0.320686 7.84372C0.0347202 7.58937 -0.0771793 7.19144 0.0554424 6.83454C0.237797 6.34636 0.457452 5.87869 0.710262 5.42743L0.90505 5.09514C1.17858 4.64388 1.48527 4.21723 1.82097 3.8152C2.06549 3.51983 2.47164 3.42137 2.83635 3.53624L5.1448 4.26236C5.70015 3.83981 6.31353 3.48701 6.96835 3.22036L7.4864 0.877906C7.56929 0.504591 7.8594 0.209221 8.24069 0.147685C8.81262 0.0492284 9.40113 0 10.0021 0C10.603 0 11.1915 0.0492284 11.7635 0.143583C12.1447 0.205118 12.4349 0.500488 12.5177 0.873803L13.0358 3.21625C13.6906 3.48291 14.304 3.83571 14.8593 4.25825L17.1678 3.53214C17.5325 3.41727 17.9387 3.51983 18.1832 3.8111C18.5189 4.21313 18.8256 4.63977 19.0991 5.09103L19.2939 5.42333C19.5467 5.87458 19.7663 6.34225 19.9487 6.83044L19.9446 6.83454ZM10.0021 13.7839C10.8814 13.7839 11.7247 13.4382 12.3465 12.8227C12.9683 12.2072 13.3176 11.3725 13.3176 10.5021C13.3176 9.63164 12.9683 8.79688 12.3465 8.1814C11.7247 7.56593 10.8814 7.22016 10.0021 7.22016C9.12274 7.22016 8.27941 7.56593 7.65763 8.1814C7.03584 8.79688 6.68653 9.63164 6.68653 10.5021C6.68653 11.3725 7.03584 12.2072 7.65763 12.8227C8.27941 13.4382 9.12274 13.7839 10.0021 13.7839Z" fill="#FCF0D9"/>
</svg>
