<svg width="402" height="552" viewBox="0 0 402 552" fill="none" xmlns="http://www.w3.org/2000/svg">
<mask id="mask0_236_934" style="mask-type:alpha" maskUnits="userSpaceOnUse" x="0" y="0" width="402" height="552">
<rect width="402" height="552" transform="matrix(-1 0 0 1 402 0)" fill="#D9D9D9"/>
</mask>
<g mask="url(#mask0_236_934)">
<circle cx="201" cy="304" r="122" fill="#95DB59"/>
<path d="M59.0723 493.486C117.419 468.443 162.326 409.81 180.33 351.384C182.584 344.07 179.448 336.176 172.717 332.534C80.7779 282.794 -15.6933 348.71 -52.0959 393.449C-55.6314 397.794 -56.5199 403.618 -54.6336 408.893C-39.914 450.053 -1.76235 519.597 59.0723 493.486Z" fill="#FCF0D9" stroke="#FCF0D9" stroke-width="12"/>
<path d="M120.46 354.946L116.552 356.967C113.403 358.605 110.014 360.396 106.42 362.321C104.244 363.487 101.66 361.683 102.014 359.24L104.264 343.731C104.502 342.091 103.366 340.569 101.726 340.331L88.2056 338.37C86.5659 338.132 85.0438 339.268 84.8059 340.908L79.7609 375.693C79.6279 376.61 79.0784 377.414 78.2724 377.872C70.5926 382.237 62.5445 386.909 54.3298 391.801C52.7492 392.743 50.6995 392.058 50.0064 390.354L36.7504 357.763C36.1262 356.229 34.3761 355.49 32.8413 356.115L20.1873 361.261C18.6525 361.885 17.9142 363.635 18.5384 365.17L33.3656 401.628C33.9161 402.982 33.4115 404.534 32.1722 405.308C2.04452 424.126 -27.9189 444.813 -48.2424 463.327L-50.256 465.184L-55.2487 469.846C-56.4599 470.977 -56.525 472.875 -55.3941 474.086L-46.0714 484.07C-44.9406 485.281 -43.0424 485.346 -41.8314 484.215L-36.8383 479.554L-34.929 477.793C-15.0911 459.731 14.9401 439.138 45.1166 420.406C46.1371 419.773 47.4365 419.812 48.4189 420.503L80.4384 443.024L86.0248 446.952C87.38 447.905 89.2511 447.579 90.2042 446.224L98.0627 435.051C99.0158 433.696 98.69 431.825 97.3349 430.872L91.7494 426.943L68.9447 410.902C67.1656 409.651 67.2683 406.982 69.1417 405.877C75.266 402.265 81.2812 398.783 87.0978 395.471C87.9328 394.995 88.945 394.95 89.8197 395.347L119.895 409.011C121.403 409.696 123.182 409.029 123.867 407.521L129.518 395.084C130.203 393.576 129.536 391.798 128.028 391.112L115.291 385.324C113.037 384.3 112.926 381.141 115.108 379.97C118.799 377.989 122.286 376.146 125.53 374.458L129.435 372.439L135.511 369.321C136.985 368.565 137.567 366.757 136.81 365.283L130.575 353.129C129.819 351.655 128.01 351.073 126.536 351.829L120.46 354.946Z" fill="#302231"/>
<path d="M313.484 305.956C321.005 301.325 330.129 299.971 340.43 302.106C351.083 304.315 359.019 309.954 362.341 319.149C362.87 320.613 363.254 322.1 363.514 323.598C363.851 325.536 365.765 326.896 367.68 326.447C369.108 326.112 370.568 325.831 372.055 325.613C384.329 323.813 398.489 326.365 410.664 338.365C417.819 345.417 420.215 354.055 418.027 362.761C417.84 363.505 417.622 364.239 417.376 364.963C416.946 366.227 417.325 367.621 418.14 368.677C419.258 370.124 419.966 371.874 420.146 373.744L423.761 411.332C424.066 414.496 422.822 417.612 420.423 419.696L408.648 429.923C407.47 430.946 407.273 432.701 408.194 433.959L431.858 466.299L432.075 466.608C433.126 468.165 433.709 469.993 433.753 471.876C433.889 477.715 432.876 486.858 425.452 493.954C418.053 501.027 406.56 503.899 390.889 502.685C373.423 501.331 361.794 493.06 355.211 482.232C353.143 478.83 351.62 475.255 350.551 471.674C350.062 470.037 348.379 469.036 346.695 469.322C341.517 470.202 335.872 469.856 329.876 468.34C320.237 465.902 312.654 461.951 307.109 456.59C301.496 451.163 298.444 444.743 297.231 438.26C296.593 434.852 296.465 431.462 296.703 428.186C296.849 426.17 295.149 424.424 293.13 424.534C289.294 424.743 285.541 424.495 281.974 423.89C271.976 422.193 262.84 417.607 256.727 411.628C251.203 406.226 245.033 395.905 251.572 385.689C253.126 383.262 254.896 381.022 256.822 378.959C258.467 377.197 257.759 374.164 255.481 373.376C253.353 372.641 251.253 371.804 249.204 370.858C239.373 366.319 229.889 358.856 225.243 347.315C220.531 335.611 221.585 321.699 228.868 306.024L229.043 305.665C230.921 302.015 234.886 299.903 238.987 300.409C252.549 302.083 268.496 304.417 281.814 313.336C286.507 316.479 290.716 320.319 294.376 324.972C295.472 326.365 297.765 326.062 298.461 324.432V324.432C301.465 317.389 306.169 310.46 313.484 305.956Z" fill="#FCF0D9"/>
<path d="M301.278 354.669C323.38 363.051 356.89 381.577 387.219 408.889C417.068 435.768 444.609 471.865 454.408 516.022L454.862 518.13L456.253 524.817C456.59 526.439 455.548 528.028 453.926 528.365L440.552 531.146C438.93 531.483 437.341 530.441 437.004 528.819L435.613 522.132L435.215 520.28C426.606 481.497 402.129 448.773 374.064 423.499C345.56 397.831 314.152 380.577 294.307 373.051L287.92 370.629C286.371 370.042 285.591 368.31 286.178 366.76L291.023 353.988C291.611 352.439 293.343 351.659 294.892 352.247L301.278 354.669Z" fill="#302231"/>
<path d="M83.4724 185.213C83.9605 176.394 80.8037 167.728 74.0183 159.689C67.0005 151.375 58.2623 147.084 48.5954 148.544C47.0562 148.777 45.5656 149.147 44.1246 149.632C42.2597 150.259 40.153 149.225 39.635 147.327C39.2488 145.912 38.8007 144.494 38.2841 143.083C34.0183 131.434 25.028 120.201 8.67731 115.214C-0.932381 112.284 -9.66849 114.292 -16.2801 120.363C-16.8451 120.882 -17.3867 121.424 -17.9061 121.985C-18.8124 122.965 -20.2186 123.297 -21.5361 123.083C-23.34 122.79 -25.2162 123.001 -26.9467 123.734L-61.7166 138.464C-64.6426 139.703 -66.7896 142.281 -67.4789 145.383L-70.8605 160.609C-71.1987 162.132 -72.6475 163.141 -74.1932 162.931L-113.901 157.534L-114.276 157.49C-116.145 157.308 -118.031 157.666 -119.707 158.525C-124.905 161.188 -132.462 166.434 -135.164 176.342C-137.857 186.218 -134.906 197.691 -126.372 210.89C-116.86 225.601 -104.047 231.885 -91.3906 232.513C-87.4142 232.711 -83.5457 232.347 -79.8878 231.58C-78.2162 231.23 -76.5341 232.233 -75.9835 233.85C-74.2903 238.821 -71.2964 243.62 -67.106 248.169C-60.3701 255.482 -53.2837 260.267 -45.9285 262.588C-38.4822 264.937 -31.3844 264.561 -25.1061 262.539C-21.8058 261.476 -18.7646 259.974 -15.9975 258.204C-14.2945 257.114 -11.9499 257.778 -11.0847 259.605C-9.44082 263.077 -7.43465 266.258 -5.20238 269.107C1.05263 277.088 9.43789 282.936 17.6068 285.462C24.988 287.745 37.0016 288.252 42.8679 277.635C44.2614 275.113 45.3878 272.49 46.2844 269.813C47.0499 267.527 50.0539 266.705 51.8315 268.332C53.492 269.853 55.2286 271.301 57.0361 272.651C65.7107 279.132 76.7907 283.914 89.1517 282.501C101.687 281.067 113.415 273.512 123.727 259.64L123.96 259.315C126.274 255.925 126.241 251.433 123.842 248.069C115.91 236.943 106.259 224.034 92.0732 216.574C87.073 213.945 81.6922 212.074 75.8573 211.073C74.1105 210.773 73.2841 208.613 74.3861 207.225V207.225C79.1469 201.228 82.9975 193.79 83.4724 185.213Z" fill="#FCF0D9"/>
<path d="M46.4593 219.155C28.5587 203.715 -3.69468 183.08 -42.1577 169.428C-80.0115 155.991 -124.87 148.975 -168.361 161.398L-170.431 162.003L-176.973 163.967C-178.56 164.443 -179.46 166.116 -178.984 167.703L-175.056 180.786C-174.58 182.373 -172.908 183.274 -171.321 182.797L-164.779 180.834L-162.961 180.302C-124.76 169.393 -84.3274 175.321 -48.7354 187.955C-12.5871 200.786 17.5474 220.179 33.6192 234.041L38.7909 238.503C40.0456 239.585 41.9402 239.446 43.0224 238.191L51.9439 227.846C53.026 226.591 52.886 224.697 51.6313 223.615L46.4593 219.155Z" fill="#302231"/>
<path d="M183.324 48.4463C186.853 58.4463 186.915 68.2378 185.463 77.4687L185.4 77.9258C184.834 82.6447 186.954 87.53 190.456 89.8369L191.157 90.3037C198.411 95.2042 205.828 102.126 210.156 111.018C214.683 120.319 215.624 131.408 210.115 143.548L209.847 144.127C208.251 147.527 208.506 151.433 210.378 154.215L210.839 154.906C215.582 162.114 220.015 171.424 221.195 181.296C222.422 191.565 220.093 202.47 211.128 211.656L210.696 212.093C208.36 214.417 207.18 217.341 207.352 220.018L207.41 221.017C207.951 231.439 206.592 244.641 199.244 253.408C195.24 258.185 189.63 261.419 182.365 262.142C175.323 262.842 167.102 261.153 157.58 256.965C148.038 253.217 141.797 247.62 138.294 240.967C134.929 234.573 134.402 227.793 135.154 221.878L135.23 221.309C135.966 216.127 134.155 210.438 130.815 207.283L130.488 206.986C119.095 197.082 107.071 179.367 111.771 158.175L112.008 157.163C113.3 151.91 111.445 145.578 107.752 142.231L107.389 141.916C98.4171 134.499 89.2309 123.394 83.7788 110.591C78.3964 97.9508 76.0946 75.8183 82.3236 61.4463C89.43 45.0497 107.752 30.9463 125.324 25.4463C143.824 19.6555 174.324 22.9463 183.324 48.4463Z" fill="#FCF0D9"/>
<path d="M136.324 59.4463L134.569 57.3068L130.215 52.0444C129.159 50.7678 127.268 50.5892 125.991 51.6454L115.467 60.3537C114.19 61.4099 114.011 63.301 115.068 64.5775L119.422 69.84L121.069 71.8485C138.357 93.1321 162.824 134.946 166.589 195.047L166.923 198.404L167.551 205.204C167.703 206.853 169.164 208.067 170.814 207.915L184.417 206.659C186.066 206.506 187.28 205.045 187.128 203.395L186.499 196.593L186.325 194.779C182.324 129.946 154.9 82.3131 136.324 59.4463Z" fill="#302231"/>
<path d="M364.089 76.6884C393.34 63.5601 434.074 71.6387 453.727 90.6653C464.957 101.538 476.292 119.113 479.171 135.206C482.049 151.298 480.977 163.627 476.904 175.257C470.591 193.289 463.371 204.223 450.527 216.039L449.911 216.601C401.219 260.557 327.31 277.125 265.331 268.888L264.847 268.819C254.717 267.247 246.866 258.923 246.191 248.537L246.113 247.264C243.04 193.492 267.335 151.186 299.177 120.692C319.252 101.468 342.46 86.7903 364.089 76.6884Z" fill="#FCF0D9"/>
<path d="M421.889 123.272C422.849 124.314 424.405 124.541 425.631 123.831C433.003 119.563 440.628 115.689 449.759 111.819L452.287 110.767L458.608 108.178C460.142 107.55 461.894 108.284 462.522 109.818L467.697 122.459C468.324 123.992 467.59 125.744 466.057 126.372L459.736 128.96L457.339 129.959C449.268 133.382 442.394 136.838 435.784 140.612C434.658 141.254 434.087 142.554 434.358 143.821L445.781 197.196C446.127 198.816 445.095 200.41 443.475 200.757L429.784 203.687C428.164 204.033 426.57 203.001 426.223 201.381L416.82 157.449C416.376 155.375 413.98 154.405 412.223 155.593C405.748 159.971 398.619 164.868 390.177 170.49C389.177 171.156 388.667 172.354 388.885 173.535L395.968 212.035L397.203 218.752C397.502 220.382 396.424 221.945 394.795 222.245L381.36 224.716C379.731 225.016 378.167 223.938 377.867 222.308L376.632 215.592L371.587 188.172C371.193 186.033 368.725 185.011 366.939 186.251C361.098 190.306 355.421 194.317 349.981 198.217C349.201 198.777 348.736 199.678 348.732 200.639L348.581 233.672C348.573 235.329 347.224 236.666 345.567 236.658L331.907 236.595C330.25 236.588 328.913 235.239 328.92 233.582L328.983 219.592C328.995 217.116 326.171 215.695 324.196 217.189C320.854 219.715 317.722 222.113 314.833 224.354L311.367 227.059L305.997 231.276C304.694 232.299 302.808 232.072 301.785 230.769L293.347 220.026C292.324 218.723 292.55 216.837 293.854 215.813L299.224 211.596L302.693 208.889C305.498 206.713 308.54 204.382 311.791 201.922C313.759 200.432 313.2 197.33 310.833 196.631L295.802 192.195C294.213 191.726 293.305 190.058 293.774 188.469L297.641 175.365C298.11 173.776 299.778 172.868 301.368 173.337L335.078 183.288C335.968 183.551 336.928 183.387 337.681 182.846C344.855 177.693 352.462 172.332 360.339 166.913C361.855 165.87 362.089 163.722 360.831 162.38L336.759 136.72C335.626 135.512 335.686 133.613 336.895 132.48L346.857 123.133C348.065 122 349.964 122.06 351.097 123.269L378.026 151.972C379.026 153.038 380.649 153.228 381.867 152.42C390.089 146.968 397.084 142.198 403.468 137.915C404.999 136.888 405.257 134.737 404.008 133.381L374.939 101.819C373.816 100.6 373.894 98.7025 375.113 97.58L385.411 88.095C386.629 86.9725 388.527 87.0505 389.65 88.2692L421.889 123.272Z" fill="#302231"/>
</g>
</svg>
